<?xml version="1.0" encoding="UTF-8"?>
<!-- Generator: visioncortex VTracer 0.6.4 -->
<svg version="1.1" xmlns="http://www.w3.org/2000/svg" width="64" height="64">
<path d="M0 0 C1.98 0 3.96 0 6 0 C6 4.62 6 9.24 6 14 C9.3 14 12.6 14 16 14 C15.67 13.34 15.34 12.68 15 12 C14.93 9.96 14.92 7.92 14.94 5.88 C14.95 4.78 14.96 3.68 14.96 2.55 C14.98 1.71 14.99 0.87 15 0 C16.98 0 18.96 0 21 0 C21 18.48 21 36.96 21 56 C19.02 56 17.04 56 15 56 C14.98 51.05 14.96 46.1 14.95 41.16 C14.94 39.47 14.93 37.79 14.92 36.1 C14.91 33.69 14.91 31.27 14.9 28.85 C14.9 28.1 14.89 27.34 14.89 26.56 C14.89 21.23 14.89 21.23 16 19 C12.7 19 9.4 19 6 19 C6 31.21 6 43.42 6 56 C4.02 56 2.04 56 0 56 C0 37.52 0 19.04 0 0 Z " fill="#FFDC95" transform="translate(8,4)"/>
<path d="M0 0 C5.94 0 11.88 0 18 0 C18 1.98 18 3.96 18 6 C14.04 6 10.08 6 6 6 C6 8.64 6 11.28 6 14 C8.31 14 10.62 14 13 14 C13 15.98 13 17.96 13 20 C10.69 20 8.38 20 6 20 C6 29.9 6 39.8 6 50 C9.96 50 13.92 50 18 50 C18 51.98 18 53.96 18 56 C12.06 56 6.12 56 0 56 C0 37.52 0 19.04 0 0 Z " fill="#FFE4AA" transform="translate(38,4)"/>
<path d="M0 0 C1.98 0 3.96 0 6 0 C6 4.62 6 9.24 6 14 C9.3 14 12.6 14 16 14 C16 14.33 16 14.66 16 15 C12.04 15 8.08 15 4 15 C4.66 16.32 5.32 17.64 6 19 C6.17 21.86 6.23 24.62 6.2 27.48 C6.19 28.3 6.19 29.12 6.19 29.96 C6.18 32.55 6.15 35.15 6.12 37.75 C6.11 39.51 6.11 41.28 6.1 43.04 C6.08 47.36 6.04 51.68 6 56 C4.02 56 2.04 56 0 56 C0 37.52 0 19.04 0 0 Z " fill="#FFF1CC" transform="translate(8,4)"/>
<path d="M0 0 C1.32 0 2.64 0 4 0 C4 17.82 4 35.64 4 54 C3.01 54 2.02 54 1 54 C0.98 49.03 0.96 44.07 0.95 39.1 C0.94 37.41 0.93 35.72 0.92 34.03 C0.91 31.6 0.91 29.18 0.9 26.75 C0.9 25.99 0.89 25.23 0.89 24.45 C0.89 22.63 0.94 20.82 1 19 C1.33 18.67 1.66 18.34 2 18 C2.24 15.31 2.42 12.64 2.56 9.94 C2.61 9.18 2.65 8.42 2.69 7.64 C2.8 5.76 2.9 3.88 3 2 C2.01 2 1.02 2 0 2 C0 1.34 0 0.68 0 0 Z " fill="#FFF3D0" transform="translate(25,4)"/>
<path d="M0 0 C2 2 2 2 2.24 4.21 C2.24 5.13 2.23 6.05 2.23 7 C2.23 8.04 2.23 9.08 2.23 10.15 C2.22 11.28 2.21 12.41 2.2 13.57 C2.19 14.72 2.19 15.87 2.19 17.06 C2.18 20.75 2.15 24.44 2.12 28.12 C2.11 30.62 2.11 33.12 2.1 35.61 C2.08 41.74 2.04 47.87 2 54 C2.99 54 3.98 54 5 54 C5 54.66 5 55.32 5 56 C3.35 56 1.7 56 0 56 C0 37.52 0 19.04 0 0 Z " fill="#FFCB69" transform="translate(8,4)"/>
<path d="M0 0 C3.96 0 7.92 0 12 0 C12 11.88 12 23.76 12 36 C13.32 36 14.64 36 16 36 C16 36.66 16 37.32 16 38 C14.02 38 12.04 38 10 38 C9.98 33.05 9.96 28.1 9.95 23.16 C9.94 21.47 9.93 19.79 9.92 18.1 C9.91 15.69 9.91 13.27 9.9 10.85 C9.9 10.1 9.89 9.34 9.89 8.56 C9.89 3.23 9.89 3.23 11 1 C7.37 1 3.74 1 0 1 C0 0.67 0 0.34 0 0 Z " fill="#FFC55B" transform="translate(13,22)"/>
<path d="M0 0 C0.33 0 0.66 0 1 0 C1 4.29 1 8.58 1 13 C5.95 13 10.9 13 16 13 C16 13.99 16 14.98 16 16 C13.52 16.03 11.04 16.05 8.56 16.06 C7.86 16.07 7.15 16.08 6.42 16.09 C4.61 16.1 2.81 16.05 1 16 C0 15 0 15 -0.1 11.62 C-0.09 10.23 -0.08 8.83 -0.06 7.44 C-0.06 6.73 -0.05 6.02 -0.05 5.28 C-0.04 3.52 -0.02 1.76 0 0 Z " fill="#FFE6AF" transform="translate(11,6)"/>
<path d="M0 0 C1.65 0 3.3 0 5 0 C5 4.62 5 9.24 5 14 C8.3 14 11.6 14 15 14 C15 14.33 15 14.66 15 15 C11.04 15 7.08 15 3 15 C3 10.71 3 6.42 3 2 C2.01 2 1.02 2 0 2 C0 1.34 0 0.68 0 0 Z " fill="#FFFCEA" transform="translate(9,4)"/>
</svg>
